<svg xmlns:dc="http://purl.org/dc/elements/1.1/" xmlns:cc="http://creativecommons.org/ns#" xmlns:rdf="http://www.w3.org/1999/02/22-rdf-syntax-ns#" xmlns:svg="http://www.w3.org/2000/svg" xmlns="http://www.w3.org/2000/svg" xmlns:sodipodi="http://sodipodi.sourceforge.net/DTD/sodipodi-0.dtd" xmlns:inkscape="http://www.inkscape.org/namespaces/inkscape" width="448" height="448" version="1.1" inkscape:version="0.91 r13725" sodipodi:docname="status-waiting.svg" style=""><rect id="backgroundrect" width="100%" height="100%" x="0" y="0" fill="none" stroke="none"/>
  <title id="title3339">math-minus-circle</title>
  <defs id="defs4">
    <pattern y="0" x="0" height="6" width="6" patternUnits="userSpaceOnUse" id="EMFhbasepattern"/>
  </defs>
  <sodipodi:namedview id="base" pagecolor="#ffffff" bordercolor="#666666" borderopacity="1.0" inkscape:pageopacity="0.0" inkscape:pageshadow="2" inkscape:zoom="0.98994949" inkscape:cx="137.05227" inkscape:cy="288.34756" inkscape:document-units="px" inkscape:current-layer="layer1" showgrid="true" units="px" inkscape:snap-bbox="true" inkscape:bbox-nodes="true" inkscape:window-width="1264" inkscape:window-height="785" inkscape:window-x="626" inkscape:window-y="380" inkscape:window-maximized="0" inkscape:object-nodes="true">
    <inkscape:grid type="xygrid" id="grid3336" spacingx="16" spacingy="16" empspacing="2"/>
  </sodipodi:namedview>
  <metadata id="metadata7">
    <rdf:RDF>
      <cc:Work rdf:about="">
        <dc:format>image/svg+xml</dc:format>
        <dc:type rdf:resource="http://purl.org/dc/dcmitype/StillImage"/>
        <dc:title>math-minus-circle</dc:title>
      </cc:Work>
    </rdf:RDF>
  </metadata>
  
<g class="currentLayer" style=""><title>Layer 1</title><g inkscape:label="Layer 1" inkscape:groupmode="layer" id="layer1" class="selected" fill="#ea981c" fill-opacity="1">
    <path style="stroke: none; stroke-width: 32; stroke-linecap: round; stroke-miterlimit: 4; stroke-dasharray: none; stroke-opacity: 1;" d="M224,0 C99.904,0 0,99.904 0,224 C0,348.096 99.904,448 224,448 C348.096,448 448,348.096 448,224 C448,99.904 348.096,0 224,0 zM223.51758,31.548827999999958 A32.0032,32.0032 0 0 1 256,64 L256,192 L320,192 A32.0032,32.0032 0 1 1 320,256 L224,256 A32.0032,32.0032 0 0 1 192,224 L192,64 A32.0032,32.0032 0 0 1 223.51758,31.548827999999958 z" id="rect3341" fill="#ea981c" fill-opacity="1"/>
    <text sodipodi:linespacing="125%" id="text3434" y="249.20684945312496" x="473.24872" style="font-style: normal; font-variant: normal; font-weight: 400; font-size: 13.8125px; line-height: 125%; font-family: Calibri; text-align: start; letter-spacing: 0px; word-spacing: 0px; text-anchor: start; stroke: none;" xml:space="preserve" fill="#ea981c" fill-opacity="1"/>
  </g></g></svg>