<svg width="24" height="24" viewBox="0 0 24 24" fill="none" xmlns="http://www.w3.org/2000/svg">
<g id="assignment_24px">
<path id="icon/action/assignment_24px" fill-rule="evenodd" clip-rule="evenodd" d="M14.8199 4H19C20.1 4 21 4.89999 21 6V20C21 21.1 20.1 22 19 22H5C4.85999 22 4.72998 21.99 4.59998 21.97C4.20996 21.89 3.85999 21.69 3.58997 21.42C3.41003 21.23 3.26001 21.02 3.16003 20.78C3.06006 20.54 3 20.27 3 20V6C3 5.72 3.06006 5.45999 3.16003 5.23001C3.26001 4.98999 3.41003 4.76999 3.58997 4.59C3.85999 4.32001 4.20996 4.12 4.59998 4.04001C4.72998 4.01001 4.85999 4 5 4H9.18005C9.59998 2.84 10.7 2 12 2C13.3 2 14.4 2.84 14.8199 4ZM7 10V8H17V10H7ZM17 14V12H7V14H17ZM14 16H7V18H14V16ZM12 3.75C12.41 3.75 12.75 4.09 12.75 4.5C12.75 4.91 12.41 5.25 12 5.25C11.59 5.25 11.25 4.91 11.25 4.5C11.25 4.09 11.59 3.75 12 3.75ZM5 20H19V6H5V20Z" fill="#FF8A00"/>
</g>
</svg>
